#!OML:ASF I:\golf\golf\golf 2\Subject 1\2002-09-07\Subject1.ASF
:FULLY-SPECIFIED
:DEGREES
374
root 0.810362 17.926 -3.63527 17.4086 13.3606 -1.57178
lowerback 12.722 1.76619 1.68403
upperback 4.11218 2.82497 6.46752
thorax -3.05734 1.40048 5.41999
lowerneck -18.513 -10.0546 -4.94758
upperneck -2.69864 -12.5806 7.37068
head 2.82701 -5.94868 2.01423
rclavicle 1.19271e-014 -1.90833e-014
rhumerus -20.4899 2.0473 -70.6376
rradius 32.5599
rwrist -18.6234
rhand -24.2941 12.4953
rfingers 7.12502
rthumb 2.19331 -17.4732
lclavicle 1.19271e-014 -1.90833e-014
lhumerus -26.4546 -4.16645 90.7258
lradius 40.1836
lwrist 6.21983
lhand -10.9604 30.3771
lfingers 7.12502
lthumb 15.0587 59.8095
rfemur -37.7159 -5.10471 25.6958
rtibia 35.0943
rfoot -11.4001 3.87033
rtoes 14.9192
lfemur -24.8092 -1.20757 -13.3046
ltibia 33.1077
lfoot -18.1647 -8.14818
ltoes -3.66519
375
root 0.847518 17.9195 -3.63354 16.8934 12.9575 -1.72091
lowerback 12.3617 1.7261 1.57834
upperback 3.96607 2.74846 6.46809
thorax -3.0128 1.36378 5.49862
lowerneck -18.899 -9.94803 -5.06499
upperneck -1.87739 -12.4264 7.16486
head 3.11866 -5.85531 1.94701
rclavicle 3.73715e-014 9.54166e-015
rhumerus -20.5928 1.71461 -70.6517
rradius 32.6611
rwrist -18.5426
rhand -23.9037 12.2863
rfingers 7.12502
rthumb 2.5704 -17.678
lclavicle 3.73715e-014 9.54166e-015
lhumerus -26.5553 -3.69075 90.6194
lradius 39.7537
lwrist 6.0579
lhand -10.9035 30.448
lfingers 7.12502
lthumb 15.1135 59.8762
rfemur -37.1469 -4.96894 25.6306
rtibia 35.1234
rfoot -11.5012 4.03662
rtoes 15.018
lfemur -24.0754 -1.28718 -13.2911
ltibia 33.015
lfoot -18.151 -8.18009
ltoes -4.54852
376
root 0.883487 17.9152 -3.63387 16.405 12.573 -1.88508
lowerback 11.9556 1.68293 1.52418
upperback 3.84563 2.66888 6.43593
thorax -2.91126 1.32487 5.5137
lowerneck -19.2466 -9.77831 -4.95662
upperneck -1.12489 -12.2271 6.85931
head 3.36238 -5.74891 1.82626
rclavicle 3.18055e-015 -3.49861e-014
rhumerus -20.6604 1.3166 -70.7289
rradius 32.7023
rwrist -18.3886
rhand -23.6966 12.2927
rfingers 7.12502
rthumb 2.7704 -17.669
lclavicle 3.18055e-015 -3.49861e-014
lhumerus -26.6267 -3.36334 90.4647
lradius 39.3752
lwrist 5.94397
lhand -10.9034 30.7435
lfingers 7.12502
lthumb 15.1135 60.1717
rfemur -36.6326 -4.8313 25.5913
rtibia 35.155
rfoot -11.5675 4.22573
rtoes 14.6208
lfemur -23.377 -1.26646 -13.2839
ltibia 32.8469
lfoot -18.2333 -8.09222
ltoes -5.44291
377
root 0.919207 17.9146 -3.63374 15.8482 12.1932 -2.05858
lowerback 11.5895 1.648 1.55955
upperback 3.77148 2.60701 6.34219
thorax -2.77736 1.29382 5.40814
lowerneck -19.376 -9.60194 -4.6815
upperneck -0.73586 -12.0451 6.52819
head 3.45323 -5.66477 1.69053
rclavicle -3.02153e-014 -5.56597e-014
rhumerus -20.7678 0.819846 -70.8787
rradius 32.8047
rwrist -18.061
rhand -23.6119 12.3345
rfingers 7.12502
rthumb 2.8522 -17.6261
lclavicle -3.02153e-014 -5.56597e-014
lhumerus -26.6487 -3.12896 90.2093
lradius 38.9596
lwrist 5.85868
lhand -11.0024 30.8667
lfingers 7.12502
lthumb 15.0182 60.302
rfemur -36.035 -4.69295 25.5495
rtibia 35.179
rfoot -11.6026 4.4349
rtoes 13.7597
lfemur -22.5941 -1.23162 -13.264
ltibia 32.6495
lfoot -18.3433 -8.02777
ltoes -5.23475
378
root 0.955434 17.9161 -3.63403 15.3096 11.8803 -2.25011
lowerback 11.2725 1.5919 1.64936
upperback 3.6534 2.52927 6.2655
thorax -2.71339 1.25563 5.2905
lowerneck -19.5201 -9.47656 -4.48437
upperneck -0.369531 -11.9134 6.23465
head 3.5497 -5.60419 1.57226
rclavicle 1.74931e-014 4.92986e-014
rhumerus -20.9533 0.317301 -71.0139
rradius 32.9374
rwrist -17.6821
rhand -23.4966 12.3877
rfingers 7.12502
rthumb 2.96354 -17.5714
lclavicle 1.74931e-014 4.92986e-014
lhumerus -26.7962 -2.93636 89.9616
lradius 38.6714
lwrist 5.79137
lhand -10.9242 30.9239
lfingers 7.12502
lthumb 15.0935 60.3536
rfemur -35.4601 -4.60768 25.5375
rtibia 35.2195
rfoot -11.6222 4.66051
rtoes 13.4846
lfemur -21.8345 -1.27477 -13.1914
ltibia 32.4436
lfoot -18.373 -8.11885
ltoes -3.77272
379
root 0.991 17.9152 -3.63624 14.8908 11.5938 -2.41015
lowerback 10.8674 1.55212 1.64543
upperback 3.5155 2.46192 6.24669
thorax -2.62904 1.22296 5.28799
lowerneck -19.8209 -9.40226 -4.45241
upperneck 0.192734 -11.8213 6.05117
head 3.74939 -5.55149 1.49591
rclavicle 1.03368e-014 2.22639e-014
rhumerus -21.1508 -0.199439 -71.0571
rradius 33.0786
rwrist -17.4248
rhand -23.2252 12.4139
rfingers 7.12502
rthumb 3.22561 -17.5415
lclavicle 1.03368e-014 2.22639e-014
lhumerus -26.908 -2.78829 89.824
lradius 38.4455
lwrist 5.70712
lhand -10.6069 30.8755
lfingers 7.12502
lthumb 15.3992 60.282
rfemur -35.0434 -4.64961 25.5436
rtibia 35.2843
rfoot -11.6419 5.00074
rtoes 13.8663
lfemur -21.2065 -1.29459 -13.1551
ltibia 32.2292
lfoot -18.4833 -8.13743
ltoes -3.40876
380
root 1.0253 17.9105 -3.64029 14.5499 11.2152 -2.4543
lowerback 10.4554 1.554 1.40523
upperback 3.3605 2.42725 6.24518
thorax -2.57132 1.20714 5.43426
lowerneck -20.1735 -9.32542 -4.53728
upperneck 0.9075 -11.7013 5.85569
head 4.00944 -5.48362 1.43038
rclavicle 4.6118e-014 -2.06736e-014
rhumerus -21.4189 -0.546005 -71.0605
rradius 33.2905
rwrist -17.4271
rhand -23.0355 12.4753
rfingers 7.12502
rthumb 3.4088 -17.4772
lclavicle 4.6118e-014 -2.06736e-014
lhumerus -26.9371 -2.57985 89.7648
lradius 38.1067
lwrist 5.64992
lhand -10.4464 30.564
lfingers 7.12502
lthumb 15.5538 59.9585
rfemur -34.7022 -4.67952 25.4372
rtibia 35.3392
rfoot -11.6393 5.36708
rtoes 14.1374
lfemur -20.6216 -1.21013 -13.2846
ltibia 32.0314
lfoot -18.7033 -7.97977
ltoes -4.7903
381
root 1.0588 17.9055 -3.64483 14.1786 10.8393 -2.48109
lowerback 10.0825 1.54386 1.10324
upperback 3.18665 2.37659 6.2705
thorax -2.55608 1.18417 5.64584
lowerneck -20.1668 -9.21011 -4.56822
upperneck 1.34911 -11.54 5.59903
head 4.12379 -5.41199 1.36348
rclavicle -1.51076e-014 -6.20208e-014
rhumerus -21.6342 -0.656447 -71.0556
rradius 33.4218
rwrist -17.8005
rhand -22.9379 12.6939
rfingers 7.12502
rthumb 3.50305 -17.2571
lclavicle -1.51076e-014 -6.20208e-014
lhumerus -27.0552 -2.36691 89.7609
lradius 37.7583
lwrist 5.70487
lhand -10.5232 30.3978
lfingers 7.12502
lthumb 15.4797 59.7981
rfemur -34.3101 -4.64216 25.2948
rtibia 35.361
rfoot -11.6489 5.62485
rtoes 14.2261
lfemur -19.9985 -1.07899 -13.4439
ltibia 31.8589
lfoot -18.7443 -7.94155
ltoes -4.9789
382
root 1.09043 17.9074 -3.64804 13.7358 10.5902 -2.65286
lowerback 9.73976 1.47769 1.02605
upperback 3.03274 2.27598 6.31888
thorax -2.52311 1.13581 5.75908
lowerneck -20.1298 -9.07378 -4.60601
upperneck 1.72481 -11.3503 5.3943
head 4.21638 -5.3257 1.31913
rclavicle 1.43125e-014 6.04305e-014
rhumerus -21.6542 -0.898253 -71.0637
rradius 33.3503
rwrist -18.0013
rhand -22.7361 12.742
rfingers 7.12502
rthumb 3.69791 -17.2057
lclavicle 1.43125e-014 6.04305e-014
lhumerus -27.233 -2.1151 89.7212
lradius 37.5228
lwrist 5.62702
lhand -10.5879 30.5417
lfingers 7.12502
lthumb 15.4174 59.9467
rfemur -33.8356 -4.5931 25.3125
rtibia 35.3539
rfoot -11.6464 5.71915
rtoes 13.9421
lfemur -19.3592 -0.940218 -13.425
ltibia 31.6877
lfoot -18.6955 -8.02553
ltoes -3.75193
383
root 1.1205 17.9101 -3.65129 13.2308 10.328 -2.91043
lowerback 9.55836 1.40021 1.09609
upperback 2.8907 2.17927 6.32217
thorax -2.55945 1.08917 5.73614
lowerneck -20.4088 -8.89836 -4.5579
upperneck 2.34582 -11.1234 5.18605
head 4.42682 -5.21144 1.24792
rclavicle 9.54166e-015 2.22639e-014
rhumerus -21.814 -1.3296 -71.1699
rradius 33.3685
rwrist -17.6861
rhand -22.5628 12.7668
rfingers 7.12502
rthumb 3.86532 -17.1778
lclavicle 9.54166e-015 2.22639e-014
lhumerus -27.372 -1.95907 89.5607
lradius 37.3362
lwrist 5.57864
lhand -10.5828 30.6912
lfingers 7.12502
lthumb 15.4224 60.0959
rfemur -33.3095 -4.49861 25.4278
rtibia 35.356
rfoot -11.6296 5.77694
rtoes 13.5184
lfemur -18.6651 -0.755811 -13.324
ltibia 31.4986
lfoot -18.8669 -7.8266
ltoes -4.40704
384
root 1.15112 17.9067 -3.65483 12.7738 10.0053 -3.11411
lowerback 9.34716 1.3301 1.06555
upperback 2.79645 2.07918 6.34569
thorax -2.53344 1.0401 5.79341
lowerneck -20.8781 -8.72105 -4.57169
upperneck 3.02752 -10.8726 4.99957
head 4.6893 -5.0816 1.18788
rclavicle 9.54166e-015 -2.8625e-014
rhumerus -22.0915 -1.58739 -71.2449
rradius 33.6593
rwrist -17.389
rhand -22.2922 12.8735
rfingers 7.12502
rthumb 4.12662 -17.0662
lclavicle 9.54166e-015 -2.8625e-014
lhumerus -27.377 -1.76991 89.4293
lradius 37.1198
lwrist 5.60929
lhand -10.4563 30.7185
lfingers 7.12502
lthumb 15.5442 60.1137
rfemur -32.8525 -4.43374 25.4959
rtibia 35.3885
rfoot -11.6497 5.96203
rtoes 13.224
lfemur -17.9738 -0.571852 -13.29
ltibia 31.3028
lfoot -19.1846 -7.47096
ltoes -6.31509
385
root 1.18134 17.8991 -3.65812 12.4472 9.74888 -3.12855
lowerback 8.9658 1.24063 0.830717
upperback 2.71454 1.92702 6.37846
thorax -2.40179 0.964683 5.98575
lowerneck -21.3376 -8.58382 -4.69009
upperneck 3.67571 -10.6466 4.82892
head 4.94838 -4.96674 1.1478
rclavicle -3.18055e-015 2.06736e-014
rhumerus -22.2296 -1.79752 -71.2198
rradius 33.9097
rwrist -17.1392
rhand -22.0582 12.8673
rfingers 7.12502
rthumb 4.35255 -17.0679
lclavicle -3.18055e-015 2.06736e-014
lhumerus -27.3442 -1.46457 89.3727
lradius 36.9175
lwrist 5.47256
lhand -10.2224 30.6928
lfingers 7.12502
lthumb 15.7694 60.0704
rfemur -32.5261 -4.53475 25.3876
rtibia 35.4514
rfoot -11.6775 6.21191
rtoes 12.639
lfemur -17.3884 -0.39381 -13.4572
ltibia 31.0968
lfoot -19.4825 -7.21832
ltoes -7.732
386
root 1.20913 17.8928 -3.66328 12.204 9.55914 -3.09502
lowerback 8.4689 1.16069 0.558806
upperback 2.59337 1.78211 6.37095
thorax -2.24571 0.89287 6.15544
lowerneck -21.5347 -8.44078 -4.69755
upperneck 4.14202 -10.4429 4.64046
head 5.10644 -4.87087 1.09699
rclavicle 2.70347e-014 7.95139e-015
rhumerus -22.356 -2.12981 -71.2119
rradius 34.0309
rwrist -16.8026
rhand -22.0372 12.8514
rfingers 7.12502
rthumb 4.37286 -17.0834
lclavicle 2.70347e-014 7.95139e-015
lhumerus -27.3853 -1.34622 89.2867
lradius 36.7895
lwrist 5.31918
lhand -10.0404 30.7101
lfingers 7.12502
lthumb 15.9447 60.0738
rfemur -32.3025 -4.63261 25.244
rtibia 35.5378
rfoot -11.7132 6.36211
rtoes 12.2611
lfemur -16.9126 -0.295766 -13.647
ltibia 30.8696
lfoot -19.6096 -7.09593
ltoes -7.83017
387
root 1.2365 17.893 -3.66598 11.9039 9.29927 -3.18449
lowerback 7.92918 1.12436 0.405681
upperback 2.49265 1.70378 6.35273
thorax -2.04631 0.852955 6.23767
lowerneck -21.4782 -8.27883 -4.61634
upperneck 4.38799 -10.2409 4.4578
head 5.15366 -4.78164 1.04804
rclavicle -2.62396e-014 -1.59028e-014
rhumerus -22.4034 -2.55905 -71.2713
rradius 33.9912
rwrist -16.444
rhand -22.0706 12.8738
rfingers 7.12502
rthumb 4.34058 -17.0617
lclavicle -2.62396e-014 -1.59028e-014
lhumerus -27.4643 -1.44517 89.1762
lradius 36.7398
lwrist 5.35249
lhand -9.97739 30.8269
lfingers 7.12502
lthumb 16.0054 60.1857
rfemur -32.0122 -4.52351 25.1969
rtibia 35.6229
rfoot -11.725 6.44664
rtoes 12.5377
lfemur -16.3906 -0.257146 -13.6909
ltibia 30.6589
lfoot -19.6354 -7.15614
ltoes -5.7819
388
root 1.26425 17.8907 -3.66492 11.4779 8.97968 -3.28091
lowerback 7.54378 1.11789 0.305282
upperback 2.39119 1.67581 6.29998
thorax -1.9357 0.838952 6.24544
lowerneck -21.3548 -8.15269 -4.52895
upperneck 4.67895 -10.0916 4.26525
head 5.20704 -4.71957 0.99002
rclavicle 1.98785e-015 4.77083e-014
rhumerus -22.4229 -3.19292 -71.3802
rradius 33.7747
rwrist -15.8276
rhand -22.2386 12.9747
rfingers 7.12502
rthumb 4.1784 -16.9641
lclavicle 1.98785e-015 4.77083e-014
lhumerus -27.5836 -1.66446 89.0848
lradius 36.6903
lwrist 5.54204
lhand -9.88155 31.1082
lfingers 7.12502
lthumb 16.0977 60.4596
rfemur -31.572 -4.39635 25.1385
rtibia 35.7074
rfoot -11.7107 6.62984
rtoes 12.8946
lfemur -15.7342 -0.0923488 -13.7579
ltibia 30.4856
lfoot -19.8109 -7.15005
ltoes -4.17967
